<svg viewBox="0 0 16 16" xmlns="http://www.w3.org/2000/svg">
  <defs id="defs3051">
    <style type="text/css" id="current-color-scheme">
      .ColorScheme-Text {
        color:#eff0f1;
      }
      </style>
  </defs>
<path d="m2 2v3h1v-1h1v-1h8v1h1v1h1v-3h-12zm6 2c-0.7140452 0-1.2320865 0.43701-1.5859375 1h3.171875c-0.3538509-0.56299-0.8718919-1-1.5859375-1zm-6 2v8h12v-8h-12zm2 1h8v1h1v4h-1v1h-8v-1h-1v-4h1v-1zm4 1c-1.1045695 0-2 0.895431-2 2 0 1.10457 0.8954305 2 2 2 1.1045701 0 2-0.89543 2-2 0-1.104569-0.8954299-2-2-2zm0 1a1 1 0 0 1 1 1 1 1 0 0 1-1 1 1 1 0 0 1-1-1 1 1 0 0 1 1-1z"
      style="fill:currentColor;fill-opacity:1;stroke:none" 
      class="ColorScheme-Text"
      />
</svg>
