<svg viewBox="0 0 22 22" xmlns="http://www.w3.org/2000/svg">
    <style type="text/css" id="current-color-scheme">
        .ColorScheme-Text {
            color:#232629;
        }
        .ColorScheme-NegativeText {
            color:#da4453;
        }
    </style>
<path
    d="m5 3v8h-2v1h10v-1h-7v-7h12v8h1v-9zm2 2v1h6v-1zm0 2v1h4v-1zm-4 6v6h10v-6zm7 2h2v2h-2zm-6 2h1v1h-1zm2 0h1v1h-1zm2 0h1v1h-1z"
    style="fill:currentColor; fill-opacity:1; stroke:none"
    class="ColorScheme-Text"
    />
<path
    d="M 14 5 L 14 6 L 17 6 L 17 5 L 14 5 z M 14.707031 14 L 14 14.707031 L 15.792969 16.5 L 14 18.292969 L 14.707031 19 L 16.5 17.207031 L 18.292969 19 L 19 18.292969 L 17.207031 16.5 L 19 14.707031 L 18.292969 14 L 16.5 15.792969 L 14.707031 14 z "
    style="fill:currentColor; fill-opacity:1; stroke:none"
    class="ColorScheme-NegativeText"
    />
</svg>
