<svg viewBox="0 0 22 22" xmlns="http://www.w3.org/2000/svg">
  <defs id="defs3051">
    <style type="text/css" id="current-color-scheme">
      .ColorScheme-Text {
        color:#232629;
      }
      </style>
  </defs>
<path d="m3 3v5h1v-2h1v-1h1v-1h10v1h1v1h1v2h1v-5h-16zm8 2a3 3 0 0 0-3 3h1a2 2 0 0 1 1.949219-2 2 2 0 0 1 0.001953 0 2 2 0 0 1 0.048828 0 2 2 0 0 1 2 2h1a3 3 0 0 0-3-3zm-8 4v10h16v-10h-16zm3 1h10v1h1v1h1v4h-1v1h-1v1h-10v-1h-1v-1h-1v-4h1v-1h1v-1zm5 1a3 3 0 0 0-3 3 3 3 0 0 0 3 3 3 3 0 0 0 3-3 3 3 0 0 0-3-3zm-0.050781 1a2 2 0 0 1 0.001953 0 2 2 0 0 1 0.048828 0 2 2 0 0 1 2 2 2 2 0 0 1-2 2 2 2 0 0 1-2-2 2 2 0 0 1 1.949219-2z"
      style="fill:currentColor;fill-opacity:1;stroke:none" 
      class="ColorScheme-Text"
      />
</svg>
