<?xml version="1.0" encoding="UTF-8" standalone="no"?>
<!-- Created with Inkscape (http://www.inkscape.org/) -->

<svg
   xmlns:dc="http://purl.org/dc/elements/1.1/"
   xmlns:cc="http://creativecommons.org/ns#"
   xmlns:rdf="http://www.w3.org/1999/02/22-rdf-syntax-ns#"
   xmlns:svg="http://www.w3.org/2000/svg"
   xmlns="http://www.w3.org/2000/svg"
   xmlns:xlink="http://www.w3.org/1999/xlink"
   xmlns:sodipodi="http://sodipodi.sourceforge.net/DTD/sodipodi-0.dtd"
   xmlns:inkscape="http://www.inkscape.org/namespaces/inkscape"
   width="210mm"
   height="297mm"
   id="svg2"
   sodipodi:version="0.32"
   inkscape:version="0.92.4 (5da689c313, 2019-01-14)"
   sodipodi:docname="startlogo_fr.svg"
   inkscape:output_extension="org.inkscape.output.svg.inkscape"
   inkscape:export-filename="../l10n/fr/startlogo.png"
   inkscape:export-xdpi="90"
   inkscape:export-ydpi="90"
   version="1.1">
  <defs
     id="defs4">
    <filter
       color-interpolation-filters="sRGB"
       inkscape:collect="always"
       id="filter4318">
      <feGaussianBlur
         inkscape:collect="always"
         stdDeviation="2.9175"
         id="feGaussianBlur4320" />
    </filter>
    <inkscape:perspective
       sodipodi:type="inkscape:persp3d"
       inkscape:vp_x="0 : 561.25983 : 1"
       inkscape:vp_y="0 : 1066.6667 : 0"
       inkscape:vp_z="793.70078 : 561.25983 : 1"
       inkscape:persp3d-origin="396.85039 : 374.17322 : 1"
       id="perspective10" />
    <inkscape:perspective
       id="perspective2464"
       inkscape:persp3d-origin="396.85039 : 374.17322 : 1"
       inkscape:vp_z="793.70078 : 561.25983 : 1"
       inkscape:vp_y="0 : 1066.6667 : 0"
       inkscape:vp_x="0 : 561.25983 : 1"
       sodipodi:type="inkscape:persp3d" />
    <inkscape:perspective
       id="perspective2846"
       inkscape:persp3d-origin="0.53333333 : 0.35555555 : 1"
       inkscape:vp_z="1.0666667 : 0.53333333 : 1"
       inkscape:vp_y="0 : 1066.6667 : 0"
       inkscape:vp_x="0 : 0.53333333 : 1"
       sodipodi:type="inkscape:persp3d" />
    <inkscape:perspective
       id="perspective2911"
       inkscape:persp3d-origin="0.53333333 : 0.35555555 : 1"
       inkscape:vp_z="1.0666667 : 0.53333333 : 1"
       inkscape:vp_y="0 : 1066.6667 : 0"
       inkscape:vp_x="0 : 0.53333333 : 1"
       sodipodi:type="inkscape:persp3d" />
    <inkscape:perspective
       id="perspective2913"
       inkscape:persp3d-origin="0.53333333 : 0.35555555 : 1"
       inkscape:vp_z="1.0666667 : 0.53333333 : 1"
       inkscape:vp_y="0 : 1066.6667 : 0"
       inkscape:vp_x="0 : 0.53333333 : 1"
       sodipodi:type="inkscape:persp3d" />
  </defs>
  <sodipodi:namedview
     id="base"
     pagecolor="#ffffff"
     bordercolor="#666666"
     borderopacity="1.0"
     inkscape:pageopacity="0.0"
     inkscape:pageshadow="2"
     inkscape:zoom="1.4"
     inkscape:cx="148.57135"
     inkscape:cy="935.59884"
     inkscape:document-units="px"
     inkscape:current-layer="layer1"
     showgrid="false"
     inkscape:window-width="1325"
     inkscape:window-height="810"
     inkscape:window-x="298"
     inkscape:window-y="1104"
     showguides="true"
     inkscape:window-maximized="0" />
  <metadata
     id="metadata7">
    <rdf:RDF>
      <cc:Work
         rdf:about="">
        <dc:format>image/svg+xml</dc:format>
        <dc:type
           rdf:resource="http://purl.org/dc/dcmitype/StillImage" />
        <dc:title />
      </cc:Work>
    </rdf:RDF>
  </metadata>
  <g
     inkscape:label="Capa 1"
     inkscape:groupmode="layer"
     id="layer1">
    <image
       xlink:href="background.png"
       sodipodi:relref="../background.png"
       width="400"
       height="300"
       id="image2915"
       x="32.49992"
       y="12.477626"
       inkscape:export-filename="../l10n/fr/startlogo.png"
       inkscape:export-xdpi="90"
       inkscape:export-ydpi="90" />
    <flowRoot
       xml:space="preserve"
       id="flowRoot2478"
       style="font-style:normal;font-weight:normal;line-height:0.01%;font-family:'Bitstream Vera Sans';fill:#000000;fill-opacity:1;stroke:none;stroke-width:1px;stroke-linecap:butt;stroke-linejoin:miter;stroke-opacity:1"><flowRegion
         id="flowRegion2480"><rect
           id="rect2482"
           width="24.285715"
           height="54.285713"
           x="975.71429"
           y="103.79076" /></flowRegion><flowPara
         id="flowPara2484"
         style="font-size:40px;line-height:1.25"> </flowPara></flowRoot>    <flowRoot
       xml:space="preserve"
       id="flowRoot3284"
       style="font-style:italic;font-variant:normal;font-weight:normal;font-stretch:normal;line-height:0.01%;font-family:'URW Bookman L';-inkscape-font-specification:'URW Bookman L Italic';text-align:start;writing-mode:lr-tb;text-anchor:start;fill:#000000;fill-opacity:1;stroke:none;stroke-width:1px;stroke-linecap:butt;stroke-linejoin:miter;stroke-opacity:1"><flowRegion
         id="flowRegion3286"><rect
           id="rect3288"
           width="75"
           height="78.571426"
           x="375.71429"
           y="160.21933"
           style="font-style:italic;font-variant:normal;font-weight:normal;font-stretch:normal;font-size:40px;line-height:125%;font-family:'URW Bookman L';-inkscape-font-specification:'URW Bookman L Italic';text-align:start;writing-mode:lr-tb;text-anchor:start" /></flowRegion><flowPara
         id="flowPara3290"
         style="font-style:italic;font-variant:normal;font-weight:normal;font-stretch:normal;font-size:40px;line-height:125%;font-family:'URW Bookman L';-inkscape-font-specification:'URW Bookman L Italic';text-align:start;writing-mode:lr-tb;text-anchor:start;fill:#ffffff;fill-opacity:1">3.95</flowPara><flowPara
         style="font-style:italic;font-variant:normal;font-weight:normal;font-stretch:normal;font-size:40px;line-height:125%;font-family:'URW Bookman L';-inkscape-font-specification:'URW Bookman L Italic';text-align:start;writing-mode:lr-tb;text-anchor:start;fill:#ffffff;fill-opacity:1"
         id="flowPara3292"> </flowPara></flowRoot>    <flowRoot
       xml:space="preserve"
       id="flowRoot2445"
       style="font-style:italic;font-variant:normal;font-weight:bold;font-stretch:normal;line-height:0.01%;font-family:serif;-inkscape-font-specification:'Serif Bold Italic';text-align:end;writing-mode:lr-tb;text-anchor:end;fill:#ffffff;fill-opacity:1;stroke:none"
       transform="matrix(1.3238032,0,0,1.57384,-184.5783,-96.686468)"
       inkscape:export-filename="../l10n/fr/startlogo.png"
       inkscape:export-xdpi="90"
       inkscape:export-ydpi="90"><flowRegion
         id="flowRegion2447"
         style="font-family:serif"><rect
           id="rect2449"
           width="130.71428"
           height="86.428574"
           x="327.14285"
           y="148.79076"
           style="font-style:italic;font-variant:normal;font-weight:bold;font-stretch:normal;font-size:40px;line-height:100%;font-family:serif;-inkscape-font-specification:'Serif Bold Italic';text-align:end;writing-mode:lr-tb;text-anchor:end;fill:#ffffff;fill-opacity:1" /></flowRegion><flowPara
         id="flowPara2917"
         style="font-size:40px;line-height:1;font-family:serif">KF5</flowPara></flowRoot>    <flowRoot
       xml:space="preserve"
       id="flowRoot3223"
       style="font-style:italic;font-variant:normal;font-weight:normal;font-stretch:normal;line-height:0.01%;font-family:sans-serif;-inkscape-font-specification:'Sans Italic';text-align:start;writing-mode:lr-tb;text-anchor:start;fill:#ffffff;fill-opacity:1;stroke:none"
       transform="translate(-52.857143,8.5714285)"
       inkscape:export-xdpi="90"
       inkscape:export-ydpi="90"
       inkscape:export-filename="../l10n/fr/startlogo.png"><flowRegion
         id="flowRegion3225"
         style="font-family:sans-serif"><rect
           id="rect3227"
           width="279.28571"
           height="50.714294"
           x="96.428574"
           y="209.50504"
           style="font-style:italic;font-variant:normal;font-weight:normal;font-stretch:normal;font-size:16px;line-height:100%;font-family:sans-serif;-inkscape-font-specification:'Sans Italic';text-align:start;writing-mode:lr-tb;text-anchor:start;fill:#ffffff;fill-opacity:1" /></flowRegion><flowPara
         style="font-size:16px;line-height:1;font-family:sans-serif"
         id="flowPara3809">Gestionaire de</flowPara><flowPara
         style="font-size:16px;line-height:1;font-family:sans-serif"
         id="flowPara3811">finances personnelles de KDE,</flowPara><flowPara
         style="font-size:16px;line-height:1;font-family:sans-serif"
         id="flowPara116">gratuit et facile d'utilisation</flowPara></flowRoot>    <g
       id="g2919"
       transform="translate(-43.571428,-1.4285714)">
      <g
         transform="matrix(1.259825,0,0,1.259825,-29.061464,2.263988)"
         id="g4370">
        <path
           id="path3339"
           d="m 125.46761,16.307433 -1.44038,10.31809 c 3.00224,-0.3209 3.19541,0.63678 2.99155,1.77515 l -10.41502,15.53261 2.02206,-12.39835 c 0.49347,-3.04054 1.47985,-4.62077 4.62583,-5.13131 l 1.44037,-9.98524 -18.83568,0 -1.55117,9.8743 c 1.94183,0.63124 4.67979,0.10294 3.54554,5.21451 l -5.9831,40.82857 c -0.76245,5.15988 -3.478011,4.18054 -5.096711,4.88167 l -1.44038,9.98525 18.835681,0.110946 1.44038,-9.874296 c -1.35229,-0.91313 -3.70277,-0.20865 -2.88075,-4.65978 l 1.55117,-12.42609 3.54554,-5.21452 2.99155,19.19387 c 0.41722,2.42697 -1.99783,2.46857 -4.32113,2.99557 l -1.55117,9.985246 20.71925,0 1.55117,-9.985246 c -4.36481,-0.84722 -4.26833,-4.26092 -4.98592,-7.10062 l -4.98591,-28.51343 7.47887,-10.26261 c 2.96895,-3.15641 5.65484,-4.85026 8.03287,-5.0481 l 1.32957,-9.98524 -18.61408,-0.11095 0,0 z m 21.38404,0.33284 -1.21878,8.5152 0.96948,0.22189 c 2.68417,0.62312 3.05968,2.06278 2.10516,8.70936 l -5.15211,35.83594 c -0.95451,6.64657 -1.76268,8.08623 -4.62582,8.70935 l -1.02488,0.22189 -1.21878,8.5152 13.57277,0 1.21878,-8.5152 -0.94179,-0.22189 c -2.68416,-0.62312 -3.08738,-2.06278 -2.13286,-8.70935 l 5.29061,-36.779 0.72019,54.22544 5.37371,0 16.34272,-53.47654 -5.17981,36.0301 c -0.95452,6.64657 -1.76269,8.08623 -4.62582,8.70935 l -1.02488,0.22189 -1.21879,8.5152 17.39531,0 1.21878,-8.5152 -0.96949,-0.22189 c -2.68415,-0.62312 -3.05968,-2.06278 -2.10516,-8.70935 l 5.15212,-35.83594 c 0.95451,-6.64658 1.73497,-8.08624 4.59811,-8.70936 l 1.02489,-0.22189 1.21877,-8.5152 -15.48403,0 -13.40657,44.24019 -0.47089,-44.24019 -15.40094,0 0,0 z m 77.19859,0 -1.21878,8.5152 0.94179,0.22189 c 2.68417,0.62312 3.08738,2.06278 2.13286,8.70936 l -5.15212,35.83594 c -0.95452,6.64657 -1.76268,8.08623 -4.62581,8.70935 l -1.02489,0.22189 -1.21878,8.5152 13.57277,0 1.21878,-8.5152 -0.94179,-0.22189 c -2.68417,-0.62312 -3.08738,-2.06278 -2.13286,-8.70935 l 5.29061,-36.779 0.72019,54.22544 5.37371,0 16.34272,-53.47654 -5.17981,36.0301 c -0.95452,6.64657 -1.76268,8.08623 -4.62582,8.70935 l -1.02488,0.22189 -1.21878,8.5152 17.3953,0 1.21879,-8.5152 -0.96949,-0.22189 c -2.68417,-0.62312 -3.05969,-2.06278 -2.10517,-8.70935 l 5.15212,-35.83594 c 0.95451,-6.64658 1.73498,-8.08624 4.59812,-8.70936 l 1.02488,-0.22189 1.21878,-8.5152 -15.48404,0 -13.40657,44.24019 -0.47089,-44.24019 -15.40094,0 0,0 z m -116.64272,1.66421 14.95774,0.11095 -0.88638,6.43493 c -1.28582,0.50822 -3.5909,0.64716 -4.34883,4.216 l -2.96385,18.97197 1.88357,0.66568 12.18779,-18.75008 c 2.28794,-4.02953 0.0789,-4.90935 -1.99436,-5.43641 l 0.77558,-6.21304 14.73615,0 -0.88638,6.65683 c -2.15522,0.70034 -4.73938,1.08872 -8.64226,6.54588 l -6.98028,9.76336 5.20752,30.84331 c 0.92711,5.70945 2.75442,6.01048 4.54272,6.54589 l -0.88639,6.767774 -16.95211,-0.110946 1.10798,-6.434938 c 3.80606,-0.38049 5.02297,-1.84901 4.21033,-5.76925 l -3.43474,-22.74417 -6.64789,9.09766 -1.77277,13.42461 c -0.57077,4.51142 1.26677,5.10408 2.99155,5.8802 l -0.99718,6.656834 -15.179351,-0.110946 0.99719,-6.434938 c 1.33564,-0.64193 4.196791,0.23428 5.318311,-6.76778 l 5.9831,-40.60667 c 0.59869,-6.74552 -2.08701,-5.85827 -3.43475,-6.76777 l 1.10799,-6.43494 0,0 z m 174.64553,16.00413 c -8.02377,0 -14.97703,10.58499 -17.2291,26.26675 -2.44597,17.03183 1.30252,27.736791 9.72254,27.736791 8.32095,2e-6 15.23485,-10.509521 17.5615,-26.710531 2.40122,-16.72028 -1.53586,-27.29301 -10.05494,-27.29301 l 0,0 z m 36.56339,0 c -3.12035,0 -6.0216,1.64224 -9.77794,5.38094 l 0.63709,-4.46563 -3.07465,0 -8.17135,3.02332 -1.19109,8.40424 0.85869,0.2219 c 2.10472,0.51926 2.40555,2.18018 1.49577,8.51519 l -2.13286,14.95014 c -0.85011,5.9196 -1.30759,6.94257 -3.32395,7.87725 l -1.55117,0.74889 -1.19107,8.40425 14.70845,0 1.19107,-8.40425 -0.80329,-0.527 c -1.71805,-1.14238 -1.87499,-2.17954 -1.02487,-8.09914 l 2.90844,-20.24786 c 2.38387,-2.80403 4.82962,-4.57657 6.3155,-4.57657 1.48588,-10e-6 1.90057,2.29501 1.27418,6.65683 l -2.60376,18.1676 c -0.85012,5.9196 -1.30547,6.95676 -3.35165,8.09914 l -0.96948,0.527 -1.21878,8.40425 14.76385,0 1.21878,-8.40425 -1.38498,-0.74889 c -1.74789,-0.93467 -1.90269,-1.95765 -1.05257,-7.87725 l 2.79765,-19.52671 c 0.80538,-5.60804 0.80089,-8.50613 -0.13851,-11.62171 -0.99369,-3.42714 -2.53291,-4.88168 -5.2075,-4.88168 l 0,0 z m 27.33943,0 c -7.62753,0 -14.64464,11.11199 -16.89671,26.79375 -2.26696,15.7856 1.75838,27.209791 9.58404,27.209791 3.76423,2e-6 7.57524,-2.809111 10.47042,-7.794041 1.23936,-2.07705 2.08361,-3.75797 3.93333,-8.01593 l -3.54554,-4.24373 c -2.79668,6.02345 -5.22986,8.8203 -7.75587,8.8203 -3.8633,0 -5.19517,-5.90978 -3.68403,-16.08734 l 16.03803,0 c 1.05891,-7.37354 1.32035,-11.64104 0.88638,-15.17203 -0.90258,-7.16583 -4.27522,-11.51077 -9.03005,-11.51077 l 0,0 z m -155.94836,0.91531 -1.21878,8.5152 0.77559,0.22189 c 1.77772,0.72697 2.08405,1.64545 2.43756,7.4612 l 2.38216,35.419891 c -1.72618,4.777217 -4.14226,9.652409 -4.73661,9.652409 -0.19813,0 -0.40862,-0.31285 -0.5817,-0.83211 -0.82598,-2.1809 -1.58711,-2.995572 -2.82535,-2.995572 -2.22882,0 -4.45114,3.634122 -5.15212,8.515199 -0.77554,5.40033 0.87425,9.1254 4.04414,9.1254 2.72413,0 5.82421,-2.69042 8.19906,-7.1561 1.47742,-2.70016 1.95265,-3.942427 4.48732,-10.900551 l 14.07137,-38.526406 c 2.50484,-6.75042 3.57377,-8.41327 6.34319,-9.76336 l 0.63709,-0.22189 1.21877,-8.5152 -13.24037,0 -1.21877,8.5152 0.60938,0 c 1.53542,0 2.13923,0.93916 1.85587,2.91236 -0.0895,0.62312 -0.26052,1.3462 -0.4986,1.96932 l -6.28779,19.33254 -0.85868,-19.5267 c 0.005,-0.72697 0.0213,-1.45714 0.11079,-2.08026 0.26848,-1.86935 1.17071,-2.60726 3.10236,-2.60726 l 0.52628,0 1.24648,-8.5152 -15.42864,0 0,0 z m 170.26902,0 -1.21878,8.5152 0.74789,0.22189 c 1.77772,0.72697 2.11175,1.64545 2.46526,7.4612 l 2.38216,35.419891 c -1.72618,4.777217 -4.16996,9.652409 -4.76433,9.652409 -0.19811,0 -0.38091,-0.31285 -0.55399,-0.83211 -0.82598,-2.1809 -1.61481,-2.995572 -2.85305,-2.995572 -2.22882,0 -4.42343,3.634122 -5.12441,8.515199 -0.77556,5.40033 0.87425,9.1254 4.04413,9.1254 2.72412,0 5.82422,-2.69042 8.19907,-7.1561 1.47743,-2.70016 1.95265,-3.942427 4.48732,-10.900551 l 14.04366,-38.526406 c 2.50485,-6.75042 3.60147,-8.41327 6.37089,-9.76336 l 0.60939,-0.22189 1.21878,-8.5152 -13.21268,0 -1.21878,8.5152 0.58169,0 c 1.53543,0 2.13924,0.93916 1.85588,2.91236 -0.0895,0.62312 -0.23282,1.3462 -0.4709,1.96932 l -6.28779,19.33254 -0.85868,-19.5267 c 0.005,-0.72697 0.0213,-1.45714 0.11079,-2.08026 0.26846,-1.86935 1.143,-2.60726 3.07465,-2.60726 l 0.55399,0 1.21878,-8.5152 -15.40094,0 0,0 z m -15.76103,8.62615 c 2.22883,0 2.80721,2.61042 1.96666,9.15314 l -6.98028,0 c 0.96887,-5.7119 2.78479,-9.15314 5.01362,-9.15314 z m -63.68122,1.02626 c 3.12035,0 3.82883,5.71755 2.18826,17.14134 -1.52125,10.59297 -3.95899,16.19829 -6.98028,16.19829 -3.12035,0 -3.93326,-5.59177 -2.38217,-16.39245 1.61076,-11.21609 4.0043,-16.94718 7.17419,-16.94718 l 0,0 z"
           style="font-size:80.85871124px;font-style:normal;font-variant:normal;font-weight:bold;font-stretch:normal;line-height:100%;writing-mode:lr-tb;text-anchor:start;opacity:0.90476194;fill:#000000;fill-opacity:1;stroke:none;display:inline;filter:url(#filter4318);font-family:URW Bookman L"
           inkscape:export-filename="../l10n/fr/startlogo.png"
           inkscape:export-xdpi="90.001999"
           inkscape:export-ydpi="90.001999" />
        <path
           style="font-size:80.85871124px;font-style:normal;font-variant:normal;font-weight:bold;font-stretch:normal;line-height:100%;writing-mode:lr-tb;text-anchor:start;fill:#ffffff;fill-opacity:1;stroke:none;display:inline;font-family:URW Bookman L"
           d="m 123.46761,14.307433 -1.44038,10.31809 c 3.00224,-0.3209 3.19541,0.63678 2.99155,1.77515 l -10.41502,15.53261 2.02206,-12.39835 c 0.49347,-3.04054 1.47985,-4.62077 4.62583,-5.13131 l 1.44037,-9.98524 -18.83568,0 -1.55117,9.8743 c 1.94183,0.63124 4.67979,0.10294 3.54554,5.21451 l -5.983101,40.82857 c -0.76245,5.15988 -3.47801,4.18054 -5.09671,4.88167 l -1.44038,9.98525 18.835681,0.110946 1.44038,-9.874296 c -1.35229,-0.91313 -3.70277,-0.20865 -2.88075,-4.65978 l 1.55117,-12.42609 3.54554,-5.21452 2.99155,19.19387 c 0.41722,2.42697 -1.99783,2.46857 -4.32113,2.99557 l -1.55117,9.985246 20.71925,0 1.55117,-9.985246 c -4.36481,-0.84722 -4.26833,-4.26092 -4.98592,-7.10062 l -4.98591,-28.51343 7.47887,-10.26261 c 2.96895,-3.15641 5.65484,-4.85026 8.03287,-5.0481 l 1.32957,-9.98524 -18.61408,-0.11095 0,0 z m 21.38404,0.33284 -1.21878,8.5152 0.96948,0.22189 c 2.68417,0.62312 3.05968,2.06278 2.10516,8.70936 l -5.15211,35.83594 c -0.95451,6.64657 -1.76268,8.08623 -4.62582,8.70935 l -1.02488,0.22189 -1.21878,8.5152 13.57277,0 1.21878,-8.5152 -0.94179,-0.22189 c -2.68416,-0.62312 -3.08738,-2.06278 -2.13286,-8.70935 l 5.29061,-36.779 0.72019,54.22544 5.37371,0 16.34272,-53.47654 -5.17981,36.0301 c -0.95452,6.64657 -1.76269,8.08623 -4.62582,8.70935 l -1.02488,0.22189 -1.21879,8.5152 17.39531,0 1.21878,-8.5152 -0.96949,-0.22189 c -2.68415,-0.62312 -3.05968,-2.06278 -2.10516,-8.70935 l 5.15212,-35.83594 c 0.95451,-6.64658 1.73497,-8.08624 4.59811,-8.70936 l 1.02489,-0.22189 1.21877,-8.5152 -15.48403,0 -13.40657,44.24019 -0.47089,-44.24019 -15.40094,0 0,0 z m 77.19859,0 -1.21878,8.5152 0.94179,0.22189 c 2.68417,0.62312 3.08738,2.06278 2.13286,8.70936 l -5.15212,35.83594 c -0.95452,6.64657 -1.76268,8.08623 -4.62581,8.70935 l -1.02489,0.22189 -1.21878,8.5152 13.57277,0 1.21878,-8.5152 -0.94179,-0.22189 c -2.68417,-0.62312 -3.08738,-2.06278 -2.13286,-8.70935 l 5.29061,-36.779 0.72019,54.22544 5.37371,0 16.34272,-53.47654 -5.17981,36.0301 c -0.95452,6.64657 -1.76268,8.08623 -4.62582,8.70935 l -1.02488,0.22189 -1.21878,8.5152 17.3953,0 1.21879,-8.5152 -0.96949,-0.22189 c -2.68417,-0.62312 -3.05969,-2.06278 -2.10517,-8.70935 l 5.15212,-35.83594 c 0.95451,-6.64658 1.73498,-8.08624 4.59812,-8.70936 l 1.02488,-0.22189 1.21878,-8.5152 -15.48404,0 -13.40657,44.24019 -0.47089,-44.24019 -15.40094,0 0,0 z m -116.64272,1.66421 14.95774,0.11095 -0.88638,6.43493 c -1.28582,0.50822 -3.5909,0.64716 -4.34883,4.216 l -2.96385,18.97197 1.88357,0.66568 12.18779,-18.75008 c 2.28794,-4.02953 0.0789,-4.90935 -1.99436,-5.43641 l 0.77558,-6.21304 14.73615,0 -0.88638,6.65683 c -2.15522,0.70034 -4.73938,1.08872 -8.64226,6.54588 l -6.98028,9.76336 5.20752,30.84331 c 0.92711,5.70945 2.75442,6.01048 4.54272,6.54589 l -0.88639,6.767774 -16.95211,-0.110946 1.10798,-6.434938 c 3.80606,-0.38049 5.02297,-1.84901 4.21033,-5.76925 l -3.43474,-22.74417 -6.64789,9.09766 -1.77277,13.42461 c -0.57077,4.51142 1.26677,5.10408 2.99155,5.8802 l -0.99718,6.656834 -15.179351,-0.110946 0.99719,-6.434938 c 1.33564,-0.64193 4.196791,0.23428 5.318311,-6.76778 l 5.9831,-40.60667 c 0.59869,-6.74552 -2.08701,-5.85827 -3.43475,-6.76777 l 1.10799,-6.43494 0,0 z m 174.64553,16.00413 c -8.02377,0 -14.97703,10.58499 -17.2291,26.26674 -2.44597,17.03184 1.30252,27.736801 9.72254,27.736801 8.32095,2e-6 15.23485,-10.509521 17.5615,-26.710531 2.40122,-16.72028 -1.53586,-27.29301 -10.05494,-27.29301 l 0,0 z m 36.56339,0 c -3.12035,0 -6.0216,1.64224 -9.77794,5.38094 l 0.63709,-4.46563 -3.07465,0 -8.17135,3.02332 -1.19109,8.40424 0.85869,0.2219 c 2.10472,0.51926 2.40555,2.18018 1.49577,8.51519 l -2.13286,14.95014 c -0.85011,5.9196 -1.30759,6.94257 -3.32395,7.87725 l -1.55117,0.74889 -1.19107,8.40425 14.70845,0 1.19107,-8.40425 -0.80329,-0.527 c -1.71805,-1.14238 -1.87499,-2.17954 -1.02487,-8.09914 l 2.90844,-20.24786 c 2.38387,-2.80403 4.82962,-4.57657 6.3155,-4.57657 1.48588,-10e-6 1.90057,2.29501 1.27418,6.65683 l -2.60376,18.1676 c -0.85012,5.9196 -1.30547,6.95676 -3.35165,8.09914 l -0.96948,0.527 -1.21878,8.40425 14.76385,0 1.21878,-8.40425 -1.38498,-0.74889 c -1.74789,-0.93467 -1.90269,-1.95765 -1.05257,-7.87725 l 2.79765,-19.52671 c 0.80538,-5.60804 0.80089,-8.50613 -0.13851,-11.62171 -0.99369,-3.42714 -2.53291,-4.88168 -5.2075,-4.88168 l 0,0 z m 27.33943,0 c -7.62753,0 -14.64464,11.11199 -16.89671,26.79375 -2.26696,15.7856 1.75838,27.209791 9.58404,27.209791 3.76423,2e-6 7.57524,-2.809111 10.47042,-7.794041 1.23936,-2.07705 2.08361,-3.75797 3.93333,-8.01593 l -3.54554,-4.24373 c -2.79668,6.02345 -5.22986,8.8203 -7.75587,8.8203 -3.8633,0 -5.19517,-5.90978 -3.68403,-16.08734 l 16.03803,0 c 1.05891,-7.37354 1.32035,-11.64104 0.88638,-15.17203 -0.90258,-7.16583 -4.27522,-11.51077 -9.03005,-11.51077 l 0,0 z m -155.94836,0.91531 -1.21878,8.5152 0.77559,0.22189 c 1.77772,0.72697 2.08405,1.64545 2.43756,7.4612 l 2.38216,35.419891 c -1.72618,4.777217 -4.14226,9.652405 -4.73661,9.652405 -0.19813,0 -0.40862,-0.312844 -0.5817,-0.832104 -0.82598,-2.180902 -1.58711,-2.995574 -2.82535,-2.995574 -2.22882,0 -4.45114,3.634124 -5.15212,8.515202 -0.77554,5.400327 0.87425,9.125397 4.04414,9.125397 2.72413,0 5.82421,-2.69042 8.19906,-7.1561 1.47742,-2.700157 1.95265,-3.942427 4.48732,-10.900551 l 14.07137,-38.526406 c 2.50484,-6.75042 3.57377,-8.41327 6.34319,-9.76336 l 0.63709,-0.22189 1.21877,-8.5152 -13.24037,0 -1.21877,8.5152 0.60938,0 c 1.53542,0 2.13923,0.93916 1.85587,2.91236 -0.0895,0.62312 -0.26052,1.3462 -0.4986,1.96932 l -6.28779,19.33254 -0.85868,-19.5267 c 0.005,-0.72697 0.0213,-1.45714 0.11079,-2.08026 0.26848,-1.86935 1.17071,-2.60726 3.10236,-2.60726 l 0.52628,0 1.24648,-8.5152 -15.42864,0 0,0 z m 170.26902,0 -1.21878,8.5152 0.74789,0.22189 c 1.77772,0.72697 2.11175,1.64545 2.46526,7.4612 l 2.38216,35.419891 c -1.72618,4.777217 -4.16996,9.652405 -4.76433,9.652405 -0.19811,0 -0.38091,-0.312844 -0.55399,-0.832104 -0.82598,-2.180902 -1.61481,-2.995574 -2.85305,-2.995574 -2.22882,0 -4.42343,3.634124 -5.12441,8.515202 -0.77556,5.400327 0.87425,9.125397 4.04413,9.125397 2.72412,0 5.82422,-2.69042 8.19907,-7.1561 1.47743,-2.700157 1.95265,-3.942427 4.48732,-10.900551 l 14.04366,-38.526406 c 2.50485,-6.75042 3.60147,-8.41327 6.37089,-9.76336 l 0.60939,-0.22189 1.21878,-8.5152 -13.21268,0 -1.21878,8.5152 0.58169,0 c 1.53543,0 2.13924,0.93916 1.85588,2.91236 -0.0895,0.62312 -0.23282,1.3462 -0.4709,1.96932 l -6.28779,19.33254 -0.85868,-19.5267 c 0.005,-0.72697 0.0213,-1.45714 0.11079,-2.08026 0.26846,-1.86935 1.143,-2.60726 3.07465,-2.60726 l 0.55399,0 1.21878,-8.5152 -15.40094,0 0,0 z m -15.76103,8.62615 c 2.22883,0 2.80721,2.61042 1.96666,9.15314 l -6.98028,0 c 0.96887,-5.7119 2.78479,-9.15314 5.01362,-9.15314 z m -63.68122,1.02626 c 3.12035,0 3.82883,5.71755 2.18826,17.14134 -1.52125,10.59297 -3.95899,16.19829 -6.98028,16.19829 -3.12035,0 -3.93326,-5.59177 -2.38217,-16.39245 1.61076,-11.21609 4.0043,-16.94718 7.17419,-16.94718 l 0,0 z"
           id="text33357"
           inkscape:export-filename="../l10n/fr/startlogo.png"
           inkscape:export-xdpi="90.001999"
           inkscape:export-ydpi="90.001999" />
      </g>
      <flowRoot
         inkscape:export-filename="../l10n/fr/startlogo.png"
         inkscape:export-ydpi="90"
         inkscape:export-xdpi="90"
         transform="translate(126.55804,-90.053573)"
         style="font-style:italic;font-variant:normal;font-weight:normal;font-stretch:normal;line-height:0.01%;font-family:sans-serif;-inkscape-font-specification:'Sans Italic';text-align:start;writing-mode:lr-tb;text-anchor:start;fill:#ffffff;fill-opacity:1;stroke:none"
         id="flowRoot3223-9"
         xml:space="preserve"><flowRegion
           id="flowRegion3225-7"
           style="font-family:sans-serif"><rect
             style="font-style:italic;font-variant:normal;font-weight:normal;font-stretch:normal;font-size:14px;line-height:100%;font-family:sans-serif;-inkscape-font-specification:'Sans Italic';text-align:start;writing-mode:lr-tb;text-anchor:start;fill:#ffffff;fill-opacity:1"
             y="209.50504"
             x="96.428574"
             height="80"
             width="277.14285"
             id="rect3227-3" /></flowRegion><flowPara
           id="flowPara2875"
           style="font-size:14px;line-height:1;font-family:sans-serif">Membre de la famille KDE</flowPara></flowRoot>    </g>
  </g>
</svg>
