<?xml version="1.0" encoding="UTF-8" standalone="no"?>
<!-- Created with Inkscape (http://www.inkscape.org/) -->

<svg
   xmlns:dc="http://purl.org/dc/elements/1.1/"
   xmlns:cc="http://creativecommons.org/ns#"
   xmlns:rdf="http://www.w3.org/1999/02/22-rdf-syntax-ns#"
   xmlns:svg="http://www.w3.org/2000/svg"
   xmlns="http://www.w3.org/2000/svg"
   xmlns:xlink="http://www.w3.org/1999/xlink"
   xmlns:sodipodi="http://sodipodi.sourceforge.net/DTD/sodipodi-0.dtd"
   xmlns:inkscape="http://www.inkscape.org/namespaces/inkscape"
   width="210mm"
   height="297mm"
   id="svg2"
   sodipodi:version="0.32"
   inkscape:version="0.92.2 5c3e80d, 2017-08-06"
   sodipodi:docname="startlogo_sl.svg"
   inkscape:output_extension="org.inkscape.output.svg.inkscape"
   inkscape:export-filename="../l10n/sl/startlogo.png"
   inkscape:export-xdpi="90"
   inkscape:export-ydpi="90"
   version="1.0">
  <defs
     id="defs4">
    <filter
       color-interpolation-filters="sRGB"
       inkscape:collect="always"
       id="filter4318">
      <feGaussianBlur
         inkscape:collect="always"
         stdDeviation="2.9175"
         id="feGaussianBlur4320" />
    </filter>
    <inkscape:perspective
       sodipodi:type="inkscape:persp3d"
       inkscape:vp_x="0 : 526.18109 : 1"
       inkscape:vp_y="0 : 1000 : 0"
       inkscape:vp_z="744.09448 : 526.18109 : 1"
       inkscape:persp3d-origin="372.04724 : 350.78739 : 1"
       id="perspective10" />
    <inkscape:perspective
       id="perspective2464"
       inkscape:persp3d-origin="372.04724 : 350.78739 : 1"
       inkscape:vp_z="744.09448 : 526.18109 : 1"
       inkscape:vp_y="0 : 1000 : 0"
       inkscape:vp_x="0 : 526.18109 : 1"
       sodipodi:type="inkscape:persp3d" />
    <inkscape:perspective
       id="perspective2846"
       inkscape:persp3d-origin="0.5 : 0.33333333 : 1"
       inkscape:vp_z="1 : 0.5 : 1"
       inkscape:vp_y="0 : 1000 : 0"
       inkscape:vp_x="0 : 0.5 : 1"
       sodipodi:type="inkscape:persp3d" />
    <inkscape:perspective
       id="perspective2911"
       inkscape:persp3d-origin="0.5 : 0.33333333 : 1"
       inkscape:vp_z="1 : 0.5 : 1"
       inkscape:vp_y="0 : 1000 : 0"
       inkscape:vp_x="0 : 0.5 : 1"
       sodipodi:type="inkscape:persp3d" />
    <inkscape:perspective
       id="perspective2913"
       inkscape:persp3d-origin="0.5 : 0.33333333 : 1"
       inkscape:vp_z="1 : 0.5 : 1"
       inkscape:vp_y="0 : 1000 : 0"
       inkscape:vp_x="0 : 0.5 : 1"
       sodipodi:type="inkscape:persp3d" />
  </defs>
  <sodipodi:namedview
     id="base"
     pagecolor="#ffffff"
     bordercolor="#666666"
     borderopacity="1.0"
     inkscape:pageopacity="0.0"
     inkscape:pageshadow="2"
     inkscape:zoom="1.4"
     inkscape:cx="-119.33781"
     inkscape:cy="907.02741"
     inkscape:document-units="px"
     inkscape:current-layer="layer1"
     showgrid="false"
     inkscape:window-width="1677"
     inkscape:window-height="904"
     inkscape:window-x="1982"
     inkscape:window-y="62"
     showguides="true"
     inkscape:window-maximized="0" />
  <metadata
     id="metadata7">
    <rdf:RDF>
      <cc:Work
         rdf:about="">
        <dc:format>image/svg+xml</dc:format>
        <dc:type
           rdf:resource="http://purl.org/dc/dcmitype/StillImage" />
        <dc:title />
      </cc:Work>
    </rdf:RDF>
  </metadata>
  <g
     inkscape:label="Capa 1"
     inkscape:groupmode="layer"
     id="layer1">
    <image
       sodipodi:absref="../svg/../background.png"
       xlink:href="../background.png"
       inkscape:export-ydpi="96"
       inkscape:export-xdpi="96"
       inkscape:export-filename="../l10n/sl/startlogo.png"
       y="12.477626"
       x="32.49992"
       id="image2915"
       height="300"
       width="400"
       sodipodi:relref="../background.png" />
    <flowRoot
       xml:space="preserve"
       id="flowRoot2478"
       style="font-size:40px;font-style:normal;font-weight:normal;fill:#000000;fill-opacity:1;stroke:none;stroke-width:1px;stroke-linecap:butt;stroke-linejoin:miter;stroke-opacity:1;font-family:Bitstream Vera Sans"><flowRegion
         id="flowRegion2480"><rect
           id="rect2482"
           width="24.285715"
           height="54.285713"
           x="975.71429"
           y="103.79076" /></flowRegion><flowPara
         id="flowPara2484" /></flowRoot>    <flowRoot
       xml:space="preserve"
       id="flowRoot3284"
       style="font-size:40px;font-style:italic;font-variant:normal;font-weight:normal;font-stretch:normal;text-align:start;line-height:125%;writing-mode:lr-tb;text-anchor:start;fill:#000000;fill-opacity:1;stroke:none;stroke-width:1px;stroke-linecap:butt;stroke-linejoin:miter;stroke-opacity:1;font-family:URW Bookman L;-inkscape-font-specification:URW Bookman L Italic"><flowRegion
         id="flowRegion3286"><rect
           id="rect3288"
           width="75"
           height="78.571426"
           x="375.71429"
           y="160.21933"
           style="font-size:40px;font-style:italic;font-variant:normal;font-weight:normal;font-stretch:normal;text-align:start;line-height:125%;writing-mode:lr-tb;text-anchor:start;font-family:URW Bookman L;-inkscape-font-specification:URW Bookman L Italic" /></flowRegion><flowPara
         id="flowPara3290"
         style="font-size:40px;font-style:italic;font-variant:normal;font-weight:normal;font-stretch:normal;text-align:start;line-height:125%;writing-mode:lr-tb;text-anchor:start;fill:#ffffff;fill-opacity:1;font-family:URW Bookman L;-inkscape-font-specification:URW Bookman L Italic">3.95</flowPara><flowPara
         style="font-size:40px;font-style:italic;font-variant:normal;font-weight:normal;font-stretch:normal;text-align:start;line-height:125%;writing-mode:lr-tb;text-anchor:start;fill:#ffffff;fill-opacity:1;font-family:URW Bookman L;-inkscape-font-specification:URW Bookman L Italic"
         id="flowPara3292" /></flowRoot>    <flowRoot
       xml:space="preserve"
       id="flowRoot2445"
       style="font-size:40px;font-style:italic;font-variant:normal;font-weight:bold;font-stretch:normal;text-align:end;line-height:100%;writing-mode:lr-tb;text-anchor:end;fill:#ffffff;fill-opacity:1;stroke:none;font-family:Serif;-inkscape-font-specification:Serif Bold Italic"
       transform="matrix(1.3238032,0,0,1.57384,-184.5783,-96.686468)"
       inkscape:export-filename="../l10n/sl/startlogo.png"
       inkscape:export-xdpi="90"
       inkscape:export-ydpi="90"><flowRegion
         id="flowRegion2447"><rect
           id="rect2449"
           width="130.71428"
           height="86.428574"
           x="327.14285"
           y="148.79076"
           style="font-size:40px;font-style:italic;font-variant:normal;font-weight:bold;font-stretch:normal;text-align:end;line-height:100%;writing-mode:lr-tb;text-anchor:end;fill:#ffffff;fill-opacity:1;font-family:Serif;-inkscape-font-specification:Serif Bold Italic" /></flowRegion><flowPara
         id="flowPara2917">KF5</flowPara></flowRoot>    <flowRoot
       xml:space="preserve"
       id="flowRoot3223"
       style="font-size:16px;font-style:italic;font-variant:normal;font-weight:normal;font-stretch:normal;text-align:start;line-height:100%;writing-mode:lr;text-anchor:start;fill:#ffffff;fill-opacity:1;stroke:none;font-family:Sans;-inkscape-font-specification:'Sans, Italic';font-variant-ligatures:normal;font-variant-caps:normal;font-variant-numeric:normal;font-feature-settings:normal;"
       transform="translate(-54.285714,-6.4285715)"
       inkscape:export-xdpi="90"
       inkscape:export-ydpi="90"
       inkscape:export-filename="../l10n/sl/startlogo.png"><flowRegion
         id="flowRegion3225"
         style="-inkscape-font-specification:'Sans, Italic';font-family:Sans;font-weight:normal;font-style:italic;font-stretch:normal;font-variant:normal;font-size:16px;text-anchor:start;text-align:start;writing-mode:lr;font-variant-ligatures:normal;font-variant-caps:normal;font-variant-numeric:normal;font-feature-settings:normal;"><rect
           id="rect3227"
           width="277.14285"
           height="80"
           x="96.428574"
           y="209.50504"
           style="font-size:16px;font-style:italic;font-variant:normal;font-weight:normal;font-stretch:normal;text-align:start;line-height:100%;writing-mode:lr;text-anchor:start;fill:#ffffff;fill-opacity:1;font-family:Sans;-inkscape-font-specification:'Sans, Italic';font-variant-ligatures:normal;font-variant-caps:normal;font-variant-numeric:normal;font-feature-settings:normal;" /></flowRegion><flowPara
         id="flowPara3732">Prost in </flowPara><flowPara
         id="flowPara3734">preprost manager</flowPara><flowPara
         id="flowPara3736">za vodenje osebnih financ na KDE</flowPara></flowRoot>    <g
       id="g4370"
       transform="matrix(1.259825,0,0,1.259825,-72.632892,0.8354166)">
      <path
         inkscape:export-ydpi="90.001999"
         inkscape:export-xdpi="90.001999"
         inkscape:export-filename="../l10n/sl/startlogo.png"
         style="font-size:80.85871124px;font-style:normal;font-variant:normal;font-weight:bold;font-stretch:normal;line-height:100%;writing-mode:lr-tb;text-anchor:start;opacity:0.90476194;fill:#000000;fill-opacity:1;stroke:none;display:inline;filter:url(#filter4318);font-family:URW Bookman L"
         d="M 125.46761,16.307433 L 124.02723,26.625523 C 127.02947,26.304623 127.22264,27.262303 127.01878,28.400673 L 116.60376,43.933283 L 118.62582,31.534933 C 119.11929,28.494393 120.10567,26.914163 123.25165,26.403623 L 124.69202,16.418383 L 105.85634,16.418383 L 104.30517,26.292683 C 106.247,26.923923 108.98496,26.395623 107.85071,31.507193 L 101.86761,72.335763 C 101.10516,77.495643 98.389599,76.516303 96.770899,77.217433 L 95.330519,87.202683 L 114.1662,87.313629 L 115.60658,77.439333 C 114.25429,76.526203 111.90381,77.230683 112.72583,72.779553 L 114.277,60.353463 L 117.82254,55.138943 L 120.81409,74.332813 C 121.23131,76.759783 118.81626,76.801383 116.49296,77.328383 L 114.94179,87.313629 L 135.66104,87.313629 L 137.21221,77.328383 C 132.8474,76.481163 132.94388,73.067463 132.22629,70.227763 L 127.24038,41.714333 L 134.71925,31.451723 C 137.6882,28.295313 140.37409,26.601463 142.75212,26.403623 L 144.08169,16.418383 L 125.46761,16.307433 L 125.46761,16.307433 L 125.46761,16.307433 z M 146.85165,16.640273 L 145.63287,25.155473 L 146.60235,25.377363 C 149.28652,26.000483 149.66203,27.440143 148.70751,34.086723 L 143.5554,69.922663 C 142.60089,76.569233 141.79272,78.008893 138.92958,78.632013 L 137.9047,78.853903 L 136.68592,87.369103 L 150.25869,87.369103 L 151.47747,78.853903 L 150.53568,78.632013 C 147.85152,78.008893 147.4483,76.569233 148.40282,69.922663 L 153.69343,33.143663 L 154.41362,87.369103 L 159.78733,87.369103 L 176.13005,33.892563 L 170.95024,69.922663 C 169.99572,76.569233 169.18755,78.008893 166.32442,78.632013 L 165.29954,78.853903 L 164.08075,87.369103 L 181.47606,87.369103 L 182.69484,78.853903 L 181.72535,78.632013 C 179.0412,78.008893 178.66567,76.569233 179.62019,69.922663 L 184.77231,34.086723 C 185.72682,27.440143 186.50728,26.000483 189.37042,25.377363 L 190.39531,25.155473 L 191.61408,16.640273 L 176.13005,16.640273 L 162.72348,60.880463 L 162.25259,16.640273 L 146.85165,16.640273 L 146.85165,16.640273 L 146.85165,16.640273 z M 224.05024,16.640273 L 222.83146,25.155473 L 223.77325,25.377363 C 226.45742,26.000483 226.86063,27.440143 225.90611,34.086723 L 220.75399,69.922663 C 219.79947,76.569233 218.99131,78.008893 216.12818,78.632013 L 215.10329,78.853903 L 213.88451,87.369103 L 227.45728,87.369103 L 228.67606,78.853903 L 227.73427,78.632013 C 225.0501,78.008893 224.64689,76.569233 225.60141,69.922663 L 230.89202,33.143663 L 231.61221,87.369103 L 236.98592,87.369103 L 253.32864,33.892563 L 248.14883,69.922663 C 247.19431,76.569233 246.38615,78.008893 243.52301,78.632013 L 242.49813,78.853903 L 241.27935,87.369103 L 258.67465,87.369103 L 259.89344,78.853903 L 258.92395,78.632013 C 256.23978,78.008893 255.86426,76.569233 256.81878,69.922663 L 261.9709,34.086723 C 262.92541,27.440143 263.70588,26.000483 266.56902,25.377363 L 267.5939,25.155473 L 268.81268,16.640273 L 253.32864,16.640273 L 239.92207,60.880463 L 239.45118,16.640273 L 224.05024,16.640273 L 224.05024,16.640273 L 224.05024,16.640273 z M 107.40752,18.304483 L 122.36526,18.415433 L 121.47888,24.850363 C 120.19306,25.358583 117.88798,25.497523 117.13005,29.066363 L 114.1662,48.038333 L 116.04977,48.704013 L 128.23756,29.953933 C 130.5255,25.924403 128.31646,25.044583 126.2432,24.517523 L 127.01878,18.304483 L 141.75493,18.304483 L 140.86855,24.961313 C 138.71333,25.661653 136.12917,26.050033 132.22629,31.507193 L 125.24601,41.270553 L 130.45353,72.113863 C 131.38064,77.823313 133.20795,78.124343 134.99625,78.659753 L 134.10986,85.427527 L 117.15775,85.316581 L 118.26573,78.881643 C 122.07179,78.501153 123.2887,77.032633 122.47606,73.112393 L 119.04132,50.368223 L 112.39343,59.465883 L 110.62066,72.890493 C 110.04989,77.401913 111.88743,77.994573 113.61221,78.770693 L 112.61503,85.427527 L 97.435679,85.316581 L 98.432869,78.881643 C 99.768509,78.239713 102.62966,79.115923 103.75118,72.113863 L 109.73428,31.507193 C 110.33297,24.761673 107.64727,25.648923 106.29953,24.739423 L 107.40752,18.304483 L 107.40752,18.304483 L 107.40752,18.304483 z M 282.05305,34.308613 C 274.02928,34.308613 267.07602,44.893603 264.82395,60.575363 C 262.37798,77.607193 266.12647,88.312154 274.54649,88.312154 C 282.86744,88.312156 289.78134,77.802633 292.10799,61.601623 C 294.50921,44.881343 290.57213,34.308613 282.05305,34.308613 L 282.05305,34.308613 L 282.05305,34.308613 z M 318.61644,34.308613 C 315.49609,34.308613 312.59484,35.950853 308.8385,39.689553 L 309.47559,35.223923 L 306.40094,35.223923 L 298.22959,38.247243 L 297.0385,46.651483 L 297.89719,46.873383 C 300.00191,47.392643 300.30274,49.053563 299.39296,55.388573 L 297.2601,70.338713 C 296.40999,76.258313 295.95251,77.281283 293.93615,78.215963 L 292.38498,78.964853 L 291.19391,87.369103 L 305.90236,87.369103 L 307.09343,78.964853 L 306.29014,78.437853 C 304.57209,77.295473 304.41515,76.258313 305.26527,70.338713 L 308.17371,50.090853 C 310.55758,47.286823 313.00333,45.514283 314.48921,45.514283 C 315.97509,45.514273 316.38978,47.809293 315.76339,52.171113 L 313.15963,70.338713 C 312.30951,76.258313 311.85416,77.295473 309.80798,78.437853 L 308.8385,78.964853 L 307.61972,87.369103 L 322.38357,87.369103 L 323.60235,78.964853 L 322.21737,78.215963 C 320.46948,77.281293 320.31468,76.258313 321.1648,70.338713 L 323.96245,50.812003 C 324.76783,45.203963 324.76334,42.305873 323.82394,39.190293 C 322.83025,35.763153 321.29103,34.308613 318.61644,34.308613 L 318.61644,34.308613 L 318.61644,34.308613 z M 345.95587,34.308613 C 338.32834,34.308613 331.31123,45.420603 329.05916,61.102363 C 326.7922,76.887963 330.81754,88.312154 338.6432,88.312154 C 342.40743,88.312156 346.21844,85.503043 349.11362,80.518113 C 350.35298,78.441063 351.19723,76.760143 353.04695,72.502183 L 349.50141,68.258453 C 346.70473,74.281903 344.27155,77.078753 341.74554,77.078753 C 337.88224,77.078753 336.55037,71.168973 338.06151,60.991413 L 354.09954,60.991413 C 355.15845,53.617873 355.41989,49.350373 354.98592,45.819383 C 354.08334,38.653553 350.7107,34.308613 345.95587,34.308613 L 345.95587,34.308613 L 345.95587,34.308613 z M 190.00751,35.223923 L 188.78873,43.739123 L 189.56432,43.961013 C 191.34204,44.687983 191.64837,45.606463 192.00188,51.422213 L 194.38404,86.842104 C 192.65786,91.619321 190.24178,96.494513 189.64743,96.494513 C 189.4493,96.494513 189.23881,96.181663 189.06573,95.662403 C 188.23975,93.481503 187.47862,92.666831 186.24038,92.666831 C 184.01156,92.666831 181.78924,96.300953 181.08826,101.18203 C 180.31272,106.58236 181.96251,110.30743 185.1324,110.30743 C 187.85653,110.30743 190.95661,107.61701 193.33146,103.15133 C 194.80888,100.45117 195.28411,99.208903 197.81878,92.250779 L 211.89015,53.724373 C 214.39499,46.973953 215.46392,45.311103 218.23334,43.961013 L 218.87043,43.739123 L 220.0892,35.223923 L 206.84883,35.223923 L 205.63006,43.739123 L 206.23944,43.739123 C 207.77486,43.739123 208.37867,44.678283 208.09531,46.651483 C 208.00581,47.274603 207.83479,47.997683 207.59671,48.620803 L 201.30892,67.953343 L 200.45024,48.426643 C 200.45524,47.699673 200.47154,46.969503 200.56103,46.346383 C 200.82951,44.477033 201.73174,43.739123 203.66339,43.739123 L 204.18967,43.739123 L 205.43615,35.223923 L 190.00751,35.223923 L 190.00751,35.223923 L 190.00751,35.223923 z M 360.27653,35.223923 L 359.05775,43.739123 L 359.80564,43.961013 C 361.58336,44.687983 361.91739,45.606463 362.2709,51.422213 L 364.65306,86.842104 C 362.92688,91.619321 360.4831,96.494513 359.88873,96.494513 C 359.69062,96.494513 359.50782,96.181663 359.33474,95.662403 C 358.50876,93.481503 357.71993,92.666831 356.48169,92.666831 C 354.25287,92.666831 352.05826,96.300953 351.35728,101.18203 C 350.58172,106.58236 352.23153,110.30743 355.40141,110.30743 C 358.12553,110.30743 361.22563,107.61701 363.60048,103.15133 C 365.07791,100.45117 365.55313,99.208903 368.0878,92.250779 L 382.13146,53.724373 C 384.63631,46.973953 385.73293,45.311103 388.50235,43.961013 L 389.11174,43.739123 L 390.33052,35.223923 L 377.11784,35.223923 L 375.89906,43.739123 L 376.48075,43.739123 C 378.01618,43.739123 378.61999,44.678283 378.33663,46.651483 C 378.24713,47.274603 378.10381,47.997683 377.86573,48.620803 L 371.57794,67.953343 L 370.71926,48.426643 C 370.72426,47.699673 370.74056,46.969503 370.83005,46.346383 C 371.09851,44.477033 371.97305,43.739123 373.9047,43.739123 L 374.45869,43.739123 L 375.67747,35.223923 L 360.27653,35.223923 L 360.27653,35.223923 L 360.27653,35.223923 z M 344.5155,43.850073 C 346.74433,43.850073 347.32271,46.460493 346.48216,53.003213 L 339.50188,53.003213 C 340.47075,47.291313 342.28667,43.850073 344.5155,43.850073 z M 280.83428,44.876333 C 283.95463,44.876333 284.66311,50.593883 283.02254,62.017673 C 281.50129,72.610643 279.06355,78.215963 276.04226,78.215963 C 272.92191,78.215963 272.109,72.624193 273.66009,61.823513 C 275.27085,50.607423 277.66439,44.876333 280.83428,44.876333 L 280.83428,44.876333 L 280.83428,44.876333 z"
         id="path3339" />
      <path
         inkscape:export-ydpi="90.001999"
         inkscape:export-xdpi="90.001999"
         inkscape:export-filename="../l10n/sl/startlogo.png"
         id="text33357"
         d="M 123.46761,14.307433 L 122.02723,24.625523 C 125.02947,24.304623 125.22264,25.262303 125.01878,26.400673 L 114.60376,41.933283 L 116.62582,29.534933 C 117.11929,26.494393 118.10567,24.914163 121.25165,24.403623 L 122.69202,14.418383 L 103.85634,14.418383 L 102.30517,24.292683 C 104.247,24.923923 106.98496,24.395623 105.85071,29.507193 L 99.867609,70.335763 C 99.105159,75.495643 96.389599,74.516303 94.770899,75.217433 L 93.330519,85.202683 L 112.1662,85.313629 L 113.60658,75.439333 C 112.25429,74.526203 109.90381,75.230683 110.72583,70.779553 L 112.277,58.353463 L 115.82254,53.138943 L 118.81409,72.332813 C 119.23131,74.759783 116.81626,74.801383 114.49296,75.328383 L 112.94179,85.313629 L 133.66104,85.313629 L 135.21221,75.328383 C 130.8474,74.481163 130.94388,71.067463 130.22629,68.227763 L 125.24038,39.714333 L 132.71925,29.451723 C 135.6882,26.295313 138.37409,24.601463 140.75212,24.403623 L 142.08169,14.418383 L 123.46761,14.307433 L 123.46761,14.307433 L 123.46761,14.307433 z M 144.85165,14.640273 L 143.63287,23.155473 L 144.60235,23.377363 C 147.28652,24.000483 147.66203,25.440143 146.70751,32.086723 L 141.5554,67.922663 C 140.60089,74.569233 139.79272,76.008893 136.92958,76.632013 L 135.9047,76.853903 L 134.68592,85.369103 L 148.25869,85.369103 L 149.47747,76.853903 L 148.53568,76.632013 C 145.85152,76.008893 145.4483,74.569233 146.40282,67.922663 L 151.69343,31.143663 L 152.41362,85.369103 L 157.78733,85.369103 L 174.13005,31.892563 L 168.95024,67.922663 C 167.99572,74.569233 167.18755,76.008893 164.32442,76.632013 L 163.29954,76.853903 L 162.08075,85.369103 L 179.47606,85.369103 L 180.69484,76.853903 L 179.72535,76.632013 C 177.0412,76.008893 176.66567,74.569233 177.62019,67.922663 L 182.77231,32.086723 C 183.72682,25.440143 184.50728,24.000483 187.37042,23.377363 L 188.39531,23.155473 L 189.61408,14.640273 L 174.13005,14.640273 L 160.72348,58.880463 L 160.25259,14.640273 L 144.85165,14.640273 L 144.85165,14.640273 L 144.85165,14.640273 z M 222.05024,14.640273 L 220.83146,23.155473 L 221.77325,23.377363 C 224.45742,24.000483 224.86063,25.440143 223.90611,32.086723 L 218.75399,67.922663 C 217.79947,74.569233 216.99131,76.008893 214.12818,76.632013 L 213.10329,76.853903 L 211.88451,85.369103 L 225.45728,85.369103 L 226.67606,76.853903 L 225.73427,76.632013 C 223.0501,76.008893 222.64689,74.569233 223.60141,67.922663 L 228.89202,31.143663 L 229.61221,85.369103 L 234.98592,85.369103 L 251.32864,31.892563 L 246.14883,67.922663 C 245.19431,74.569233 244.38615,76.008893 241.52301,76.632013 L 240.49813,76.853903 L 239.27935,85.369103 L 256.67465,85.369103 L 257.89344,76.853903 L 256.92395,76.632013 C 254.23978,76.008893 253.86426,74.569233 254.81878,67.922663 L 259.9709,32.086723 C 260.92541,25.440143 261.70588,24.000483 264.56902,23.377363 L 265.5939,23.155473 L 266.81268,14.640273 L 251.32864,14.640273 L 237.92207,58.880463 L 237.45118,14.640273 L 222.05024,14.640273 L 222.05024,14.640273 L 222.05024,14.640273 z M 105.40752,16.304483 L 120.36526,16.415433 L 119.47888,22.850363 C 118.19306,23.358583 115.88798,23.497523 115.13005,27.066363 L 112.1662,46.038333 L 114.04977,46.704013 L 126.23756,27.953933 C 128.5255,23.924403 126.31646,23.044583 124.2432,22.517523 L 125.01878,16.304483 L 139.75493,16.304483 L 138.86855,22.961313 C 136.71333,23.661653 134.12917,24.050033 130.22629,29.507193 L 123.24601,39.270553 L 128.45353,70.113863 C 129.38064,75.823313 131.20795,76.124343 132.99625,76.659753 L 132.10986,83.427527 L 115.15775,83.316581 L 116.26573,76.881643 C 120.07179,76.501153 121.2887,75.032633 120.47606,71.112393 L 117.04132,48.368223 L 110.39343,57.465883 L 108.62066,70.890493 C 108.04989,75.401913 109.88743,75.994573 111.61221,76.770693 L 110.61503,83.427527 L 95.435679,83.316581 L 96.432869,76.881643 C 97.768509,76.239713 100.62966,77.115923 101.75118,70.113863 L 107.73428,29.507193 C 108.33297,22.761673 105.64727,23.648923 104.29953,22.739423 L 105.40752,16.304483 L 105.40752,16.304483 L 105.40752,16.304483 z M 280.05305,32.308613 C 272.02928,32.308613 265.07602,42.893603 262.82395,58.575353 C 260.37798,75.607193 264.12647,86.312154 272.54649,86.312154 C 280.86744,86.312156 287.78134,75.802633 290.10799,59.601623 C 292.50921,42.881343 288.57213,32.308613 280.05305,32.308613 L 280.05305,32.308613 L 280.05305,32.308613 z M 316.61644,32.308613 C 313.49609,32.308613 310.59484,33.950853 306.8385,37.689553 L 307.47559,33.223923 L 304.40094,33.223923 L 296.22959,36.247243 L 295.0385,44.651483 L 295.89719,44.873383 C 298.00191,45.392643 298.30274,47.053563 297.39296,53.388573 L 295.2601,68.338713 C 294.40999,74.258313 293.95251,75.281283 291.93615,76.215963 L 290.38498,76.964853 L 289.19391,85.369103 L 303.90236,85.369103 L 305.09343,76.964853 L 304.29014,76.437853 C 302.57209,75.295473 302.41515,74.258313 303.26527,68.338713 L 306.17371,48.090853 C 308.55758,45.286823 311.00333,43.514283 312.48921,43.514283 C 313.97509,43.514273 314.38978,45.809293 313.76339,50.171113 L 311.15963,68.338713 C 310.30951,74.258313 309.85416,75.295473 307.80798,76.437853 L 306.8385,76.964853 L 305.61972,85.369103 L 320.38357,85.369103 L 321.60235,76.964853 L 320.21737,76.215963 C 318.46948,75.281293 318.31468,74.258313 319.1648,68.338713 L 321.96245,48.812003 C 322.76783,43.203963 322.76334,40.305873 321.82394,37.190293 C 320.83025,33.763153 319.29103,32.308613 316.61644,32.308613 L 316.61644,32.308613 L 316.61644,32.308613 z M 343.95587,32.308613 C 336.32834,32.308613 329.31123,43.420603 327.05916,59.102363 C 324.7922,74.887963 328.81754,86.312154 336.6432,86.312154 C 340.40743,86.312156 344.21844,83.503043 347.11362,78.518113 C 348.35298,76.441063 349.19723,74.760143 351.04695,70.502183 L 347.50141,66.258453 C 344.70473,72.281903 342.27155,75.078753 339.74554,75.078753 C 335.88224,75.078753 334.55037,69.168973 336.06151,58.991413 L 352.09954,58.991413 C 353.15845,51.617873 353.41989,47.350373 352.98592,43.819383 C 352.08334,36.653553 348.7107,32.308613 343.95587,32.308613 L 343.95587,32.308613 L 343.95587,32.308613 z M 188.00751,33.223923 L 186.78873,41.739123 L 187.56432,41.961013 C 189.34204,42.687983 189.64837,43.606463 190.00188,49.422213 L 192.38404,84.842104 C 190.65786,89.619321 188.24178,94.494509 187.64743,94.494509 C 187.4493,94.494509 187.23881,94.181665 187.06573,93.662405 C 186.23975,91.481503 185.47862,90.666831 184.24038,90.666831 C 182.01156,90.666831 179.78924,94.300955 179.08826,99.182033 C 178.31272,104.58236 179.96251,108.30743 183.1324,108.30743 C 185.85653,108.30743 188.95661,105.61701 191.33146,101.15133 C 192.80888,98.451173 193.28411,97.208903 195.81878,90.250779 L 209.89015,51.724373 C 212.39499,44.973953 213.46392,43.311103 216.23334,41.961013 L 216.87043,41.739123 L 218.0892,33.223923 L 204.84883,33.223923 L 203.63006,41.739123 L 204.23944,41.739123 C 205.77486,41.739123 206.37867,42.678283 206.09531,44.651483 C 206.00581,45.274603 205.83479,45.997683 205.59671,46.620803 L 199.30892,65.953343 L 198.45024,46.426643 C 198.45524,45.699673 198.47154,44.969503 198.56103,44.346383 C 198.82951,42.477033 199.73174,41.739123 201.66339,41.739123 L 202.18967,41.739123 L 203.43615,33.223923 L 188.00751,33.223923 L 188.00751,33.223923 L 188.00751,33.223923 z M 358.27653,33.223923 L 357.05775,41.739123 L 357.80564,41.961013 C 359.58336,42.687983 359.91739,43.606463 360.2709,49.422213 L 362.65306,84.842104 C 360.92688,89.619321 358.4831,94.494509 357.88873,94.494509 C 357.69062,94.494509 357.50782,94.181665 357.33474,93.662405 C 356.50876,91.481503 355.71993,90.666831 354.48169,90.666831 C 352.25287,90.666831 350.05826,94.300955 349.35728,99.182033 C 348.58172,104.58236 350.23153,108.30743 353.40141,108.30743 C 356.12553,108.30743 359.22563,105.61701 361.60048,101.15133 C 363.07791,98.451173 363.55313,97.208903 366.0878,90.250779 L 380.13146,51.724373 C 382.63631,44.973953 383.73293,43.311103 386.50235,41.961013 L 387.11174,41.739123 L 388.33052,33.223923 L 375.11784,33.223923 L 373.89906,41.739123 L 374.48075,41.739123 C 376.01618,41.739123 376.61999,42.678283 376.33663,44.651483 C 376.24713,45.274603 376.10381,45.997683 375.86573,46.620803 L 369.57794,65.953343 L 368.71926,46.426643 C 368.72426,45.699673 368.74056,44.969503 368.83005,44.346383 C 369.09851,42.477033 369.97305,41.739123 371.9047,41.739123 L 372.45869,41.739123 L 373.67747,33.223923 L 358.27653,33.223923 L 358.27653,33.223923 L 358.27653,33.223923 z M 342.5155,41.850073 C 344.74433,41.850073 345.32271,44.460493 344.48216,51.003213 L 337.50188,51.003213 C 338.47075,45.291313 340.28667,41.850073 342.5155,41.850073 z M 278.83428,42.876333 C 281.95463,42.876333 282.66311,48.593883 281.02254,60.017673 C 279.50129,70.610643 277.06355,76.215963 274.04226,76.215963 C 270.92191,76.215963 270.109,70.624193 271.66009,59.823513 C 273.27085,48.607423 275.66439,42.876333 278.83428,42.876333 L 278.83428,42.876333 L 278.83428,42.876333 z"
         style="font-size:80.85871124px;font-style:normal;font-variant:normal;font-weight:bold;font-stretch:normal;line-height:100%;writing-mode:lr-tb;text-anchor:start;fill:#ffffff;fill-opacity:1;stroke:none;display:inline;font-family:URW Bookman L" />
    </g>
    <flowRoot
       xml:space="preserve"
       id="flowRoot3223-9"
       style="font-style:italic;font-variant:normal;font-weight:normal;font-stretch:normal;font-size:14px;line-height:100%;font-family:Sans;-inkscape-font-specification:'Sans, Italic';font-variant-ligatures:normal;font-variant-caps:normal;font-variant-numeric:normal;font-feature-settings:normal;text-align:start;writing-mode:lr-tb;text-anchor:start;fill:#ffffff;fill-opacity:1;stroke:none"
       transform="translate(116.7009,-89.339287)"
       inkscape:export-xdpi="90"
       inkscape:export-ydpi="90"
       inkscape:export-filename="../l10n/sl/startlogo.png"><flowRegion
         id="flowRegion3225-7"
         style="font-style:italic;font-variant:normal;font-weight:normal;font-stretch:normal;font-size:14px;font-family:Sans;-inkscape-font-specification:'Sans, Italic';font-variant-ligatures:normal;font-variant-caps:normal;font-variant-numeric:normal;font-feature-settings:normal;text-align:start;writing-mode:lr-tb;text-anchor:start"><rect
           id="rect3227-3"
           width="277.14285"
           height="80"
           x="96.428574"
           y="209.50504"
           style="font-style:italic;font-variant:normal;font-weight:normal;font-stretch:normal;font-size:14px;line-height:100%;font-family:Sans;-inkscape-font-specification:'Sans, Italic';font-variant-ligatures:normal;font-variant-caps:normal;font-variant-numeric:normal;font-feature-settings:normal;text-align:start;writing-mode:lr-tb;text-anchor:start;fill:#ffffff;fill-opacity:1" /></flowRegion><flowPara
         id="flowPara3730">Del družine KDE</flowPara></flowRoot>  </g>
</svg>
