<svg version="1.1" viewBox="0 0 22 22" xmlns="http://www.w3.org/2000/svg"><style type="text/css" id="current-color-scheme">.ColorScheme-Text { color:#eff0f1; }.ColorScheme-NegativeText { color: #da4453; }</style>
    <path d="m5.1210938 3 1 1h9.8789062v1h1v1h1v2h1v-5h-13.878906zm5.8789062 2a3 3 0 0 0-2.5136719 1.3652344l0.7304688 0.7304687a2 2 0 0 1 1.7324221-1.0957031 2 2 0 0 1 0.001953 0 2 2 0 0 1 0.048828 0 2 2 0 0 1 2 2h1a3 3 0 0 0-3-3zm-8 0.1210938v2.8789062h1v-1.8789062l-1-1zm0 3.8789062v10h13.878906l-1-1h-9.878906v-1h-1v-1h-1v-4h1v-1h1v-1h1.8789062l-1-1h-3.8789062zm8.121094 0 1 1h3.878906v1h1v1h1v3.878906l1 1v-7.878906h-7.878906zm-1.7578128 2.484375a3 3 0 0 0-1.3632812 2.515625 3 3 0 0 0 3 3 3 3 0 0 0 2.513672-1.365234l-0.730469-0.730469a2 2 0 0 1-1.783203 1.095703 2 2 0 0 1-2-2 2 2 0 0 1 1.095703-1.783203l-0.7324218-0.732422z" fill="currentColor" class="ColorScheme-Text"/>
    <path d="M 3.7070312,3 3,3.7070312 18.292969,19 19,18.292969 Z" fill="currentColor" class="ColorScheme-NegativeText"/>
</svg>
