<svg version="1.1" viewBox="0 0 16 16" xmlns="http://www.w3.org/2000/svg"><style type="text/css" id="current-color-scheme">.ColorScheme-Text { color: #232629; }.ColorScheme-NegativeText { color: #da4453; }</style>
    <path d="m4.1210938 2 1 1h6.8789062v1h1v1h1v-3h-9.8789062zm3.8789062 2c-0.5314364 0-0.953841 0.2417414-1.28125 0.5976562l0.4023438 0.4023438h2.4648437c-0.3538509-0.56299-0.8718919-1-1.5859375-1zm-6 0.1210938v0.8789062h0.8789062l-0.8789062-0.8789062zm0 1.8789062v8h9.878906l-1-1h-6.878906v-1h-1v-4h1v-1h0.8789062l-1-1h-1.8789062zm6.1210938 0 1 1h2.8789062v1h1v2.878906l1 1v-5.878906h-5.8789062zm-1.5898438 2.6523438c-0.3267024 0.3559831-0.53125 0.8263951-0.53125 1.3476562 0 1.10457 0.8954305 2 2 2 0.5212616 0 0.9916732-0.204548 1.3476562-0.53125l-0.7050781-0.705078a1 1 0 0 1-0.6425781 0.236328 1 1 0 0 1-1-1 1 1 0 0 1 0.2363281-0.6425781l-0.7050781-0.7050781z" fill="currentColor" class="ColorScheme-Text"/>
    <path d="M 2.7070312,2 2,2.7070312 13.292969,14 14,13.267578 Z" fill="currentColor" class="ColorScheme-NegativeText"/>
</svg>
